<svg xmlns="http://www.w3.org/2000/svg" xmlns:xlink="http://www.w3.org/1999/xlink" version="1.1" data-diagram-type="ACTIVITY" style="width:935px;height:858px;background:#FFFFFF;" width="935px" height="858px" viewBox="0 0 935 858" zoomAndPan="magnify" preserveAspectRatio="none" contentStyleType="text/css"><?plantuml 1.2026.8beta1?><defs/><g font-family="sans-serif" lengthAdjust="spacing"><ellipse cx="322.676" cy="25" rx="10" ry="10" fill="#222" style="stroke:#222;stroke-width:1;"/><rect x="212.396" y="55" width="220.561" height="33.969" fill="#F0F4F8" style="stroke:#4189DC;stroke-width:0.5;" rx="12.5" ry="12.5"/><text x="222.396" y="76.139" fill="#000" font-size="12" textLength="200.561" font-family="Arial">Receive raw_result (AI Response)</text><polygon points="268.957,108.969,376.395,108.969,388.395,120.969,376.395,132.969,268.957,132.969,256.957,120.969,268.957,108.969" fill="#F0F4F8" style="stroke:#4189DC;stroke-width:0.5;stroke-linejoin:miter;stroke-miterlimit:10;"/><text x="268.957" y="124.777" fill="#000" font-size="11" textLength="107.438" font-family="Arial">raw_result is None?</text><text x="237.739" y="118.375" fill="#000" font-size="11" textLength="19.218" font-family="Arial">Yes</text><text x="388.395" y="118.375" fill="#000" font-size="11" textLength="14.958" font-family="Arial">No</text><rect x="16" y="142.969" width="236.16" height="82.266" fill="none" style="stroke:#45A4F3;stroke-width:1.5;"/><path d="M173.239,142.969 L173.239,152.266 L163.239,162.266 L16,162.266" style="stroke:#45A4F3;stroke-width:1.5;" fill="none"/><text x="19" y="156.964" fill="#000" font-size="14" textLength="147.239" font-family="Arial">Local Regex Fallback</text><rect x="26" y="179.266" width="216.16" height="33.969" fill="#F0F4F8" style="stroke:#4189DC;stroke-width:0.5;" rx="12.5" ry="12.5"/><text x="36" y="200.404" fill="#000" font-size="12" textLength="196.16" font-family="Arial">Use regex to extract data locally</text><ellipse cx="134.08" cy="271.234" rx="11" ry="11" fill="none" style="stroke:#222;stroke-width:1;"/><ellipse cx="134.08" cy="271.234" rx="6" ry="6" fill="#222" style="stroke:#222;stroke-width:1;"/><rect x="384.954" y="142.969" width="252.637" height="205.234" fill="none" style="stroke:#45A4F3;stroke-width:1.5;"/><path d="M507.002,142.969 L507.002,152.266 L497.002,162.266 L384.954,162.266" style="stroke:#45A4F3;stroke-width:1.5;" fill="none"/><text x="387.954" y="156.964" fill="#000" font-size="14" textLength="112.048" font-family="Arial">Clean Response</text><rect x="394.954" y="179.266" width="232.637" height="33.969" fill="#F0F4F8" style="stroke:#4189DC;stroke-width:0.5;" rx="12.5" ry="12.5"/><text x="404.954" y="200.404" fill="#000" font-size="12" textLength="212.637" font-family="Arial">Remove Markdown blocks (```json)</text><rect x="405.43" y="240.234" width="211.684" height="33.969" fill="#F0F4F8" style="stroke:#4189DC;stroke-width:0.5;" rx="12.5" ry="12.5"/><text x="415.43" y="261.373" fill="#000" font-size="12" textLength="191.684" font-family="Arial">Remove comments (// and /* */)</text><rect x="426.269" y="302.234" width="170.006" height="33.969" fill="#F0F4F8" style="stroke:#4189DC;stroke-width:0.5;" rx="12.5" ry="12.5"/><text x="436.269" y="323.373" fill="#000" font-size="12" textLength="150.006" font-family="Arial">Remove trailing commas</text><rect x="394.15" y="358.203" width="521.413" height="88.414" fill="none" style="stroke:#45A4F3;stroke-width:1.5;"/><path d="M563.216,358.203 L563.216,367.5 L553.216,377.5 L394.15,377.5" style="stroke:#45A4F3;stroke-width:1.5;" fill="none"/><text x="397.15" y="372.198" fill="#000" font-size="14" textLength="159.065" font-family="Arial">Standard JSON Parsing</text><path d="M638.394,394.352 L638.394,410.484 L618.394,414.484 L638.394,418.484 L638.394,434.617 A0,0 0 0 0 638.394,434.617 L905.563,434.617 A0,0 0 0 0 905.563,434.617 L905.563,404.352 L895.563,394.352 L638.394,394.352 A0,0 0 0 0 638.394,394.352" style="stroke:#DAA520;stroke-width:0.5;" fill="#FFFACD"/><path d="M895.563,394.352 L895.563,404.352 L905.563,404.352 L895.563,394.352" style="stroke:#DAA520;stroke-width:0.5;" fill="#FFFACD"/><text x="644.394" y="411.418" fill="#000" font-size="13" textLength="175.754" font-family="Arial">strict=False safely handles</text><text x="644.394" y="426.551" fill="#000" font-size="13" textLength="246.168" font-family="Arial">unescaped newlines without hanging.</text><rect x="404.15" y="397.5" width="214.244" height="33.969" fill="#F0F4F8" style="stroke:#4189DC;stroke-width:0.5;" rx="12.5" ry="12.5"/><text x="414.15" y="418.639" fill="#000" font-size="12" textLength="194.244" font-family="Arial">Attempt json.loads(strict=False)</text><polygon points="438.738,466.617,583.806,466.617,595.806,478.617,583.806,490.617,438.738,490.617,426.738,478.617,438.738,466.617" fill="#F0F4F8" style="stroke:#4189DC;stroke-width:0.5;stroke-linejoin:miter;stroke-miterlimit:10;"/><text x="438.738" y="482.425" fill="#000" font-size="11" textLength="145.068" font-family="Arial">JSON Parsed Successfully?</text><text x="407.521" y="476.023" fill="#000" font-size="11" textLength="19.218" font-family="Arial">Yes</text><text x="595.806" y="476.023" fill="#000" font-size="11" textLength="14.958" font-family="Arial">No</text><rect x="282.16" y="500.617" width="160.092" height="33.969" fill="#F0F4F8" style="stroke:#4189DC;stroke-width:0.5;" rx="12.5" ry="12.5"/><text x="292.16" y="521.756" fill="#000" font-size="12" textLength="140.092" font-family="Arial">Return Valid JSON Data</text><ellipse cx="362.206" cy="580.586" rx="11" ry="11" fill="none" style="stroke:#222;stroke-width:1;"/><ellipse cx="362.206" cy="580.586" rx="6" ry="6" fill="#222" style="stroke:#222;stroke-width:1;"/><rect x="541.962" y="500.617" width="236.752" height="151.234" fill="none" style="stroke:#45A4F3;stroke-width:1.5;"/><path d="M615.571,500.617 L615.571,509.914 L605.571,519.914 L541.962,519.914" style="stroke:#45A4F3;stroke-width:1.5;" fill="none"/><text x="544.962" y="514.612" fill="#000" font-size="14" textLength="63.608" font-family="Arial">AI Repair</text><rect x="551.962" y="536.914" width="216.752" height="33.969" fill="#F0F4F8" style="stroke:#4189DC;stroke-width:0.5;" rx="12.5" ry="12.5"/><text x="561.962" y="558.053" fill="#000" font-size="12" textLength="196.752" font-family="Arial">Send malformed JSON back to AI</text><rect x="567.062" y="605.883" width="186.553" height="33.969" fill="#F0F4F8" style="stroke:#4189DC;stroke-width:0.5;" rx="12.5" ry="12.5"/><text x="577.062" y="627.021" fill="#000" font-size="12" textLength="166.553" font-family="Arial">Prompt AI to fix syntax only</text><polygon points="601.592,671.852,719.085,671.852,731.085,683.852,719.085,695.852,601.592,695.852,589.592,683.852,601.592,671.852" fill="#F0F4F8" style="stroke:#4189DC;stroke-width:0.5;stroke-linejoin:miter;stroke-miterlimit:10;"/><text x="601.592" y="687.66" fill="#000" font-size="11" textLength="117.493" font-family="Arial">AI Repair Successful?</text><text x="570.374" y="681.257" fill="#000" font-size="11" textLength="19.218" font-family="Arial">Yes</text><text x="731.085" y="681.257" fill="#000" font-size="11" textLength="14.958" font-family="Arial">No</text><rect x="472.252" y="705.852" width="160.092" height="33.969" fill="#F0F4F8" style="stroke:#4189DC;stroke-width:0.5;" rx="12.5" ry="12.5"/><text x="482.252" y="726.99" fill="#000" font-size="12" textLength="140.092" font-family="Arial">Return Valid JSON Data</text><ellipse cx="552.298" cy="785.82" rx="11" ry="11" fill="none" style="stroke:#222;stroke-width:1;"/><ellipse cx="552.298" cy="785.82" rx="6" ry="6" fill="#222" style="stroke:#222;stroke-width:1;"/><rect x="652.344" y="705.852" width="232.07" height="90.266" fill="none" style="stroke:#45A4F3;stroke-width:1.5;"/><path d="M806.336,705.852 L806.336,715.148 L796.336,725.148 L652.344,725.148" style="stroke:#45A4F3;stroke-width:1.5;" fill="none"/><text x="655.344" y="719.847" fill="#000" font-size="14" textLength="143.992" font-family="Arial">Final Regex Fallback</text><rect x="662.344" y="742.148" width="212.07" height="33.969" fill="#F0F4F8" style="stroke:#4189DC;stroke-width:0.5;" rx="12.5" ry="12.5"/><text x="672.344" y="763.287" fill="#000" font-size="12" textLength="192.07" font-family="Arial">Extract known keys using regex</text><ellipse cx="768.379" cy="827.82" rx="11" ry="11" fill="none" style="stroke:#222;stroke-width:1;"/><ellipse cx="768.379" cy="827.82" rx="6" ry="6" fill="#222" style="stroke:#222;stroke-width:1;"/><line x1="322.676" y1="35" x2="322.676" y2="55" style="stroke:#174D8B;stroke-width:1;"/><polygon points="318.676,45,322.676,55,326.676,45,322.676,49" fill="#174D8B" style="stroke:#174D8B;stroke-width:1;stroke-linejoin:miter;stroke-miterlimit:10;"/><line x1="134.08" y1="213.234" x2="134.08" y2="260.234" style="stroke:#174D8B;stroke-width:1;"/><polygon points="130.08,250.234,134.08,260.234,138.08,250.234,134.08,254.234" fill="#174D8B" style="stroke:#174D8B;stroke-width:1;stroke-linejoin:miter;stroke-miterlimit:10;"/><line x1="511.272" y1="213.234" x2="511.272" y2="240.234" style="stroke:#174D8B;stroke-width:1;"/><polygon points="507.272,230.234,511.272,240.234,515.272,230.234,511.272,234.234" fill="#174D8B" style="stroke:#174D8B;stroke-width:1;stroke-linejoin:miter;stroke-miterlimit:10;"/><line x1="511.272" y1="274.203" x2="511.272" y2="302.234" style="stroke:#174D8B;stroke-width:1;"/><polygon points="507.272,292.234,511.272,302.234,515.272,292.234,511.272,296.234" fill="#174D8B" style="stroke:#174D8B;stroke-width:1;stroke-linejoin:miter;stroke-miterlimit:10;"/><line x1="511.272" y1="336.203" x2="511.272" y2="397.5" style="stroke:#174D8B;stroke-width:1;"/><polygon points="507.272,387.5,511.272,397.5,515.272,387.5,511.272,391.5" fill="#174D8B" style="stroke:#174D8B;stroke-width:1;stroke-linejoin:miter;stroke-miterlimit:10;"/><line x1="362.206" y1="534.586" x2="362.206" y2="569.586" style="stroke:#174D8B;stroke-width:1;"/><polygon points="358.206,559.586,362.206,569.586,366.206,559.586,362.206,563.586" fill="#174D8B" style="stroke:#174D8B;stroke-width:1;stroke-linejoin:miter;stroke-miterlimit:10;"/><line x1="660.338" y1="570.883" x2="660.338" y2="605.883" style="stroke:#174D8B;stroke-width:1;"/><polygon points="656.338,595.883,660.338,605.883,664.338,595.883,660.338,599.883" fill="#174D8B" style="stroke:#174D8B;stroke-width:1;stroke-linejoin:miter;stroke-miterlimit:10;"/><line x1="552.298" y1="739.82" x2="552.298" y2="774.82" style="stroke:#174D8B;stroke-width:1;"/><polygon points="548.298,764.82,552.298,774.82,556.298,764.82,552.298,768.82" fill="#174D8B" style="stroke:#174D8B;stroke-width:1;stroke-linejoin:miter;stroke-miterlimit:10;"/><line x1="768.379" y1="776.117" x2="768.379" y2="816.82" style="stroke:#174D8B;stroke-width:1;"/><polygon points="764.379,806.82,768.379,816.82,772.379,806.82,768.379,810.82" fill="#174D8B" style="stroke:#174D8B;stroke-width:1;stroke-linejoin:miter;stroke-miterlimit:10;"/><line x1="589.592" y1="683.852" x2="552.298" y2="683.852" style="stroke:#174D8B;stroke-width:1;"/><line x1="552.298" y1="683.852" x2="552.298" y2="705.852" style="stroke:#174D8B;stroke-width:1;"/><polygon points="548.298,695.852,552.298,705.852,556.298,695.852,552.298,699.852" fill="#174D8B" style="stroke:#174D8B;stroke-width:1;stroke-linejoin:miter;stroke-miterlimit:10;"/><line x1="731.085" y1="683.852" x2="768.379" y2="683.852" style="stroke:#174D8B;stroke-width:1;"/><line x1="768.379" y1="683.852" x2="768.379" y2="742.148" style="stroke:#174D8B;stroke-width:1;"/><polygon points="764.379,732.148,768.379,742.148,772.379,732.148,768.379,736.148" fill="#174D8B" style="stroke:#174D8B;stroke-width:1;stroke-linejoin:miter;stroke-miterlimit:10;"/><line x1="660.338" y1="639.852" x2="660.338" y2="671.852" style="stroke:#174D8B;stroke-width:1;"/><polygon points="656.338,661.852,660.338,671.852,664.338,661.852,660.338,665.852" fill="#174D8B" style="stroke:#174D8B;stroke-width:1;stroke-linejoin:miter;stroke-miterlimit:10;"/><line x1="426.738" y1="478.617" x2="362.206" y2="478.617" style="stroke:#174D8B;stroke-width:1;"/><line x1="362.206" y1="478.617" x2="362.206" y2="500.617" style="stroke:#174D8B;stroke-width:1;"/><polygon points="358.206,490.617,362.206,500.617,366.206,490.617,362.206,494.617" fill="#174D8B" style="stroke:#174D8B;stroke-width:1;stroke-linejoin:miter;stroke-miterlimit:10;"/><line x1="595.806" y1="478.617" x2="660.338" y2="478.617" style="stroke:#174D8B;stroke-width:1;"/><line x1="660.338" y1="478.617" x2="660.338" y2="536.914" style="stroke:#174D8B;stroke-width:1;"/><polygon points="656.338,526.914,660.338,536.914,664.338,526.914,660.338,530.914" fill="#174D8B" style="stroke:#174D8B;stroke-width:1;stroke-linejoin:miter;stroke-miterlimit:10;"/><line x1="511.272" y1="431.469" x2="511.272" y2="466.617" style="stroke:#174D8B;stroke-width:1;"/><polygon points="507.272,456.617,511.272,466.617,515.272,456.617,511.272,460.617" fill="#174D8B" style="stroke:#174D8B;stroke-width:1;stroke-linejoin:miter;stroke-miterlimit:10;"/><line x1="256.957" y1="120.969" x2="134.08" y2="120.969" style="stroke:#174D8B;stroke-width:1;"/><line x1="134.08" y1="120.969" x2="134.08" y2="179.266" style="stroke:#174D8B;stroke-width:1;"/><polygon points="130.08,169.266,134.08,179.266,138.08,169.266,134.08,173.266" fill="#174D8B" style="stroke:#174D8B;stroke-width:1;stroke-linejoin:miter;stroke-miterlimit:10;"/><line x1="388.395" y1="120.969" x2="511.272" y2="120.969" style="stroke:#174D8B;stroke-width:1;"/><line x1="511.272" y1="120.969" x2="511.272" y2="179.266" style="stroke:#174D8B;stroke-width:1;"/><polygon points="507.272,169.266,511.272,179.266,515.272,169.266,511.272,173.266" fill="#174D8B" style="stroke:#174D8B;stroke-width:1;stroke-linejoin:miter;stroke-miterlimit:10;"/><line x1="322.676" y1="88.969" x2="322.676" y2="108.969" style="stroke:#174D8B;stroke-width:1;"/><polygon points="318.676,98.969,322.676,108.969,326.676,98.969,322.676,102.969" fill="#174D8B" style="stroke:#174D8B;stroke-width:1;stroke-linejoin:miter;stroke-miterlimit:10;"/><?plantuml-src XLDDRzD04BtxLupWalJGj92AqWWXDy5I4OIg4KYSwDGU9qlMkzRkk4c4-j-PjHtZf20EjcpFstaVC_PhPKfqMC2CSgmq9zRm70k2s2dKaU_gSShgKV7k6jFrqjdAP5EhhOENoLaoJYx_XhGk8zUYnkUNRsVJFievkscBvs_6iylhNd5kcPuJ9KaydHsZ-YIpEBvuTTP3tA9ZnSgQGoqNECvVHv5dAKTNTvIIUYHmkFdXo4i8C8Xlu8vyQOsduIIAL0w3NbbvuJRqVWYy8WE3x-I74K2vPuCNdsoAMbeiQGi9QlqWPbx0Bm41N7trGbQNs09jsM7Aa24Zw71CxoQ2UvBBioqZqW8Vp6rWE2IPQaBJwUpQtr5XnSvdTElCRWmyIDUrXy7z_VrFRyrmSW1BRL6GOQcFHe0cWz49d8oEG29HQMMMDHfze-zGp8BbCBeCFYw-p4FmNl2TffYPYf8X23ZL5ZC_yEnKokyadJhZ03CoK71gkUBwDGJm1mCUSz8xM0cF9Wyjf3BaKomf0qCRqIYLZUALhJWWboBYj4QIM0lzzzB3I3kfSdfHfIbvdrUI__5Wwo2uSWQ-eLQjnPaCh95TZqaOUeE2HbuldtgZIbHkduaqNGHH1UhSkeBQjc5Jmbx4DvCzxDRPa9rqaE-vseBV6SOjMDEiIkkeyTJnz1mzz_CVHvsdOrUmZxtdB57cdxjUCtreLtnjmZgkQUUX2jlH_0HxngTdp2PJUJ3MFDJttm00?></g></svg>