<svg xmlns="http://www.w3.org/2000/svg" xmlns:xlink="http://www.w3.org/1999/xlink" version="1.1" data-diagram-type="ACTIVITY" style="width:1068px;height:1773px;background:#FFFFFF;" width="1068px" height="1773px" viewBox="0 0 1068 1773" zoomAndPan="magnify" preserveAspectRatio="none" contentStyleType="text/css"><?plantuml 1.2026.8beta1?><defs/><g font-family="sans-serif" lengthAdjust="spacing"><ellipse cx="283.867" cy="25" rx="10" ry="10" fill="#222" style="stroke:#222;stroke-width:1;"/><rect x="191.271" y="55" width="185.193" height="33.969" fill="#F0F4F8" style="stroke:#4189DC;stroke-width:0.5;" rx="12.5" ry="12.5"/><text x="201.271" y="76.139" fill="#000" font-size="12" textLength="165.193" font-family="Arial">User clicks "Screen Papers"</text><rect x="138.276" y="108.969" width="291.184" height="33.969" fill="#F0F4F8" style="stroke:#4189DC;stroke-width:0.5;" rx="12.5" ry="12.5"/><text x="148.276" y="130.107" fill="#000" font-size="12" textLength="271.184" font-family="Arial">Initialize session state &amp; validate PICO inputs</text><polygon points="229.013,216.906,338.722,216.906,350.722,228.906,338.722,240.906,229.013,240.906,217.013,228.906,229.013,216.906" fill="#F0F4F8" style="stroke:#4189DC;stroke-width:0.5;stroke-linejoin:miter;stroke-miterlimit:10;"/><text x="229.013" y="232.714" fill="#000" font-size="11" textLength="109.71" font-family="Arial">PDF Hash in Cache?</text><text x="197.795" y="226.312" fill="#000" font-size="11" textLength="19.218" font-family="Arial">Yes</text><text x="350.722" y="226.312" fill="#000" font-size="11" textLength="14.958" font-family="Arial">No</text><rect x="16" y="250.906" width="139.18" height="33.969" fill="#F0F4F8" style="stroke:#4189DC;stroke-width:0.5;" rx="12.5" ry="12.5"/><text x="26" y="272.045" fill="#000" font-size="12" textLength="119.18" font-family="Arial">Load Cached Result</text><rect x="326.944" y="250.906" width="310.402" height="33.969" fill="#F0F4F8" style="stroke:#4189DC;stroke-width:0.5;" rx="12.5" ry="12.5"/><text x="336.944" y="272.045" fill="#000" font-size="12" textLength="290.402" font-family="Arial">Extract PDF Content (PyMuPDF / Tesseract OCR)</text><polygon points="441.537,304.875,522.753,304.875,534.753,316.875,522.753,328.875,441.537,328.875,429.537,316.875,441.537,304.875" fill="#F0F4F8" style="stroke:#4189DC;stroke-width:0.5;stroke-linejoin:miter;stroke-miterlimit:10;"/><text x="441.537" y="320.683" fill="#000" font-size="11" textLength="81.216" font-family="Arial">Text is empty?</text><text x="410.319" y="314.281" fill="#000" font-size="11" textLength="19.218" font-family="Arial">Yes</text><text x="534.753" y="314.281" fill="#000" font-size="11" textLength="14.958" font-family="Arial">No</text><rect x="185.18" y="338.875" width="159.236" height="33.969" fill="#F0F4F8" style="stroke:#4189DC;stroke-width:0.5;" rx="12.5" ry="12.5"/><text x="195.18" y="360.014" fill="#000" font-size="12" textLength="139.236" font-family="Arial">Skip File (Log Warning)</text><rect x="457.485" y="338.875" width="478.836" height="254.203" fill="none" style="stroke:#45A4F3;stroke-width:1.5;"/><path d="M681.395,338.875 L681.395,348.172 L671.395,358.172 L457.485,358.172" style="stroke:#45A4F3;stroke-width:1.5;" fill="none"/><text x="460.485" y="352.87" fill="#000" font-size="14" textLength="213.91" font-family="Arial">Tier 1: Deterministic Exclusion</text><rect x="554.906" y="375.172" width="289.174" height="33.969" fill="#F0F4F8" style="stroke:#4189DC;stroke-width:0.5;" rx="12.5" ry="12.5"/><text x="564.906" y="396.311" fill="#000" font-size="12" textLength="269.174" font-family="Arial">Scan text for Exclusion &amp; Inclusion keywords</text><polygon points="585.346,429.141,813.639,429.141,825.639,441.141,813.639,453.141,585.346,453.141,573.346,441.141,585.346,429.141" fill="#F0F4F8" style="stroke:#4189DC;stroke-width:0.5;stroke-linejoin:miter;stroke-miterlimit:10;"/><text x="585.346" y="444.949" fill="#000" font-size="11" textLength="228.293" font-family="Arial">Exclusion found AND NO Inclusion found?</text><text x="554.128" y="438.546" fill="#000" font-size="11" textLength="19.218" font-family="Arial">Yes</text><text x="825.639" y="438.546" fill="#000" font-size="11" textLength="14.958" font-family="Arial">No</text><rect x="494.471" y="463.141" width="137.75" height="33.969" fill="#F0F4F8" style="stroke:#4189DC;stroke-width:0.5;" rx="12.5" ry="12.5"/><text x="504.471" y="484.279" fill="#000" font-size="12" textLength="117.75" font-family="Arial">Auto-Exclude Paper</text><rect x="477.485" y="517.109" width="171.723" height="33.969" fill="#F0F4F8" style="stroke:#4189DC;stroke-width:0.5;" rx="12.5" ry="12.5"/><text x="487.485" y="538.248" fill="#000" font-size="12" textLength="151.723" font-family="Arial">Confidence = 1.0 (100%)</text><rect x="754.957" y="463.141" width="161.363" height="33.969" fill="#F0F4F8" style="stroke:#4189DC;stroke-width:0.5;" rx="12.5" ry="12.5"/><text x="764.957" y="484.279" fill="#000" font-size="12" textLength="141.363" font-family="Arial">Bypass to AI Evaluation</text><polygon points="699.492,557.078,711.492,569.078,699.492,581.078,687.492,569.078,699.492,557.078" fill="#F0F4F8" style="stroke:#4189DC;stroke-width:0.5;stroke-linejoin:miter;stroke-miterlimit:10;"/><rect x="555.285" y="658.789" width="288.414" height="244.172" fill="none" style="stroke:#45A4F3;stroke-width:1.5;"/><path d="M739.041,658.789 L739.041,668.085 L729.041,678.085 L555.285,678.085" style="stroke:#45A4F3;stroke-width:1.5;" fill="none"/><text x="558.285" y="672.784" fill="#000" font-size="14" textLength="173.756" font-family="Arial">LLM Screening &amp; Parsing</text><rect x="620.554" y="695.085" width="157.877" height="33.969" fill="#F0F4F8" style="stroke:#4189DC;stroke-width:0.5;" rx="12.5" ry="12.5"/><text x="630.554" y="716.224" fill="#000" font-size="12" textLength="137.877" font-family="Arial">Construct PICO Prompt</text><rect x="565.285" y="749.054" width="268.414" height="33.969" fill="#F0F4F8" style="stroke:#4189DC;stroke-width:0.5;" rx="12.5" ry="12.5"/><text x="575.285" y="770.193" fill="#000" font-size="12" textLength="248.414" font-family="Arial">Query LLM (Retry 3x on empty/rate-limit)</text><rect x="615.697" y="803.023" width="167.592" height="33.969" fill="#F0F4F8" style="stroke:#4189DC;stroke-width:0.5;" rx="12.5" ry="12.5"/><text x="625.697" y="824.162" fill="#000" font-size="12" textLength="147.592" font-family="Arial">Bulletproof JSON Parsing</text><rect x="590.542" y="856.992" width="217.9" height="33.969" fill="#F0F4F8" style="stroke:#4189DC;stroke-width:0.5;" rx="12.5" ry="12.5"/><text x="600.542" y="878.13" fill="#000" font-size="12" textLength="197.9" font-family="Arial">Extract AI Decision &amp; Confidence</text><rect x="374.416" y="912.96" width="630.789" height="277.082" fill="none" style="stroke:#45A4F3;stroke-width:1.5;"/><path d="M627.967,912.96 L627.967,922.257 L617.967,932.257 L374.416,932.257" style="stroke:#45A4F3;stroke-width:1.5;" fill="none"/><text x="377.416" y="926.956" fill="#000" font-size="14" textLength="243.551" font-family="Arial">Confidence Verification &amp; Override</text><rect x="581.349" y="949.257" width="236.287" height="33.969" fill="#F0F4F8" style="stroke:#4189DC;stroke-width:0.5;" rx="12.5" ry="12.5"/><text x="591.349" y="970.396" fill="#000" font-size="12" textLength="216.287" font-family="Arial">Calculate Tier 1 Deterministic Score</text><polygon points="608.823,1011.105,790.162,1011.105,802.162,1023.105,790.162,1035.105,608.823,1035.105,596.823,1023.105,608.823,1011.105" fill="#F0F4F8" style="stroke:#4189DC;stroke-width:0.5;stroke-linejoin:miter;stroke-miterlimit:10;"/><text x="608.823" y="1026.913" fill="#000" font-size="11" textLength="181.339" font-family="Arial">AI Score > 0.5 AND Tier 1 &lt; 0.5?</text><text x="577.605" y="1020.511" fill="#000" font-size="11" textLength="19.218" font-family="Arial">Yes</text><text x="802.162" y="1020.511" fill="#000" font-size="11" textLength="14.958" font-family="Arial">No</text><rect x="426.203" y="1045.105" width="226.514" height="33.969" fill="#F0F4F8" style="stroke:#4189DC;stroke-width:0.5;" rx="12.5" ry="12.5"/><text x="436.203" y="1066.244" fill="#000" font-size="12" textLength="206.514" font-family="Arial">Override AI Confidence Downward</text><rect x="394.416" y="1114.074" width="290.088" height="33.969" fill="#F0F4F8" style="stroke:#4189DC;stroke-width:0.5;" rx="12.5" ry="12.5"/><text x="404.416" y="1135.212" fill="#000" font-size="12" textLength="270.088" font-family="Arial">Flag for Human Review (Likely Hallucination)</text><polygon points="795.679,1045.105,923.371,1045.105,935.371,1057.105,923.371,1069.105,795.679,1069.105,783.679,1057.105,795.679,1045.105" fill="#F0F4F8" style="stroke:#4189DC;stroke-width:0.5;stroke-linejoin:miter;stroke-miterlimit:10;"/><text x="795.679" y="1060.913" fill="#000" font-size="11" textLength="127.692" font-family="Arial">AI Confidence missing?</text><text x="764.461" y="1054.511" fill="#000" font-size="11" textLength="19.218" font-family="Arial">Yes</text><text x="935.371" y="1054.511" fill="#000" font-size="11" textLength="14.958" font-family="Arial">No</text><rect x="714.504" y="1079.105" width="118.35" height="33.969" fill="#F0F4F8" style="stroke:#4189DC;stroke-width:0.5;" rx="12.5" ry="12.5"/><text x="724.504" y="1100.244" fill="#000" font-size="12" textLength="98.35" font-family="Arial">Use Tier 1 Score</text><rect x="897.537" y="1079.105" width="95.668" height="33.969" fill="#F0F4F8" style="stroke:#4189DC;stroke-width:0.5;" rx="12.5" ry="12.5"/><text x="907.537" y="1100.244" fill="#000" font-size="12" textLength="75.668" font-family="Arial">Use AI Score</text><polygon points="859.525,1119.074,871.525,1131.074,859.525,1143.074,847.525,1131.074,859.525,1119.074" fill="#F0F4F8" style="stroke:#4189DC;stroke-width:0.5;stroke-linejoin:miter;stroke-miterlimit:10;"/><polygon points="699.492,1154.042,711.492,1166.042,699.492,1178.042,687.492,1166.042,699.492,1154.042" fill="#F0F4F8" style="stroke:#4189DC;stroke-width:0.5;stroke-linejoin:miter;stroke-miterlimit:10;"/><rect x="618.708" y="1258.445" width="161.568" height="33.969" fill="#F0F4F8" style="stroke:#4189DC;stroke-width:0.5;" rx="12.5" ry="12.5"/><text x="628.708" y="1279.583" fill="#000" font-size="12" textLength="141.568" font-family="Arial">Flag as Low Confidence</text><polygon points="633.973,1210.042,765.012,1210.042,777.012,1222.042,765.012,1234.042,633.973,1234.042,621.973,1222.042,633.973,1210.042" fill="#F0F4F8" style="stroke:#4189DC;stroke-width:0.5;stroke-linejoin:miter;stroke-miterlimit:10;"/><text x="703.492" y="1244.253" fill="#000" font-size="11" textLength="19.218" font-family="Arial">Yes</text><text x="633.973" y="1225.851" fill="#000" font-size="11" textLength="131.039" font-family="Arial">Final Confidence &lt; 0.5?</text><text x="777.012" y="1219.448" fill="#000" font-size="11" textLength="14.958" font-family="Arial">No</text><polygon points="699.492,1312.414,711.492,1324.414,699.492,1336.414,687.492,1324.414,699.492,1312.414" fill="#F0F4F8" style="stroke:#4189DC;stroke-width:0.5;stroke-linejoin:miter;stroke-miterlimit:10;"/><rect x="544.479" y="1356.414" width="310.027" height="33.969" fill="#F0F4F8" style="stroke:#4189DC;stroke-width:0.5;" rx="12.5" ry="12.5"/><text x="554.479" y="1377.552" fill="#000" font-size="12" textLength="290.027" font-family="Arial">Determine Final Status (Include/Exclude/Maybe)</text><polygon points="656.685,613.078,742.3,613.078,754.3,625.078,742.3,637.078,656.685,637.078,644.685,625.078,656.685,613.078" fill="#F0F4F8" style="stroke:#4189DC;stroke-width:0.5;stroke-linejoin:miter;stroke-miterlimit:10;"/><text x="703.492" y="647.289" fill="#000" font-size="11" textLength="14.958" font-family="Arial">No</text><text x="656.685" y="628.886" fill="#000" font-size="11" textLength="85.615" font-family="Arial">Auto-Excluded?</text><text x="754.3" y="622.484" fill="#000" font-size="11" textLength="19.218" font-family="Arial">Yes</text><polygon points="699.492,1410.382,711.492,1422.382,699.492,1434.382,687.492,1422.382,699.492,1410.382" fill="#F0F4F8" style="stroke:#4189DC;stroke-width:0.5;stroke-linejoin:miter;stroke-miterlimit:10;"/><rect x="601.742" y="1454.382" width="195.5" height="33.969" fill="#F0F4F8" style="stroke:#4189DC;stroke-width:0.5;" rx="12.5" ry="12.5"/><text x="611.742" y="1475.521" fill="#000" font-size="12" textLength="175.5" font-family="Arial">Save Result to Cache &amp; Stats</text><polygon points="482.145,1494.351,494.145,1506.351,482.145,1518.351,470.145,1506.351,482.145,1494.351" fill="#F0F4F8" style="stroke:#4189DC;stroke-width:0.5;stroke-linejoin:miter;stroke-miterlimit:10;"/><polygon points="283.867,1524.351,295.867,1536.351,283.867,1548.351,271.867,1536.351,283.867,1524.351" fill="#F0F4F8" style="stroke:#4189DC;stroke-width:0.5;stroke-linejoin:miter;stroke-miterlimit:10;"/><rect x="182.617" y="162.938" width="202.502" height="33.969" fill="#F0F4F8" style="stroke:#4189DC;stroke-width:0.5;" rx="12.5" ry="12.5"/><text x="192.617" y="184.076" fill="#000" font-size="12" textLength="182.502" font-family="Arial">For each PDF (max 20 papers)</text><polygon points="227.826,1568.351,339.909,1568.351,351.909,1580.351,339.909,1592.351,227.826,1592.351,215.826,1580.351,227.826,1568.351" fill="#F0F4F8" style="stroke:#4189DC;stroke-width:0.5;stroke-linejoin:miter;stroke-miterlimit:10;"/><text x="287.867" y="1602.562" fill="#000" font-size="11" textLength="14.958" font-family="Arial">No</text><text x="227.826" y="1584.159" fill="#000" font-size="11" textLength="112.084" font-family="Arial">More PDFs in batch?</text><text x="351.909" y="1577.757" fill="#000" font-size="11" textLength="19.218" font-family="Arial">Yes</text><rect x="123.639" y="1624.062" width="320.457" height="33.969" fill="#F0F4F8" style="stroke:#4189DC;stroke-width:0.5;" rx="12.5" ry="12.5"/><text x="133.639" y="1645.2" fill="#000" font-size="12" textLength="300.457" font-family="Arial">Render Screening Dashboard (Pie Chart &amp; Tables)</text><rect x="149.397" y="1678.03" width="268.941" height="33.969" fill="#F0F4F8" style="stroke:#4189DC;stroke-width:0.5;" rx="12.5" ry="12.5"/><text x="159.397" y="1699.169" fill="#000" font-size="12" textLength="248.941" font-family="Arial">Display Export Options (CSV/XLSX/DOCX)</text><ellipse cx="283.867" cy="1742.999" rx="11" ry="11" fill="none" style="stroke:#222;stroke-width:1;"/><ellipse cx="283.867" cy="1742.999" rx="6" ry="6" fill="#222" style="stroke:#222;stroke-width:1;"/><line x1="283.867" y1="35" x2="283.867" y2="55" style="stroke:#174D8B;stroke-width:1;"/><polygon points="279.867,45,283.867,55,287.867,45,283.867,49" fill="#174D8B" style="stroke:#174D8B;stroke-width:1;stroke-linejoin:miter;stroke-miterlimit:10;"/><line x1="283.867" y1="88.969" x2="283.867" y2="108.969" style="stroke:#174D8B;stroke-width:1;"/><polygon points="279.867,98.969,283.867,108.969,287.867,98.969,283.867,102.969" fill="#174D8B" style="stroke:#174D8B;stroke-width:1;stroke-linejoin:miter;stroke-miterlimit:10;"/><line x1="563.346" y1="497.109" x2="563.346" y2="517.109" style="stroke:#174D8B;stroke-width:1;"/><polygon points="559.346,507.109,563.346,517.109,567.346,507.109,563.346,511.109" fill="#174D8B" style="stroke:#174D8B;stroke-width:1;stroke-linejoin:miter;stroke-miterlimit:10;"/><line x1="573.346" y1="441.141" x2="563.346" y2="441.141" style="stroke:#174D8B;stroke-width:1;"/><line x1="563.346" y1="441.141" x2="563.346" y2="463.141" style="stroke:#174D8B;stroke-width:1;"/><polygon points="559.346,453.141,563.346,463.141,567.346,453.141,563.346,457.141" fill="#174D8B" style="stroke:#174D8B;stroke-width:1;stroke-linejoin:miter;stroke-miterlimit:10;"/><line x1="825.639" y1="441.141" x2="835.639" y2="441.141" style="stroke:#174D8B;stroke-width:1;"/><line x1="835.639" y1="441.141" x2="835.639" y2="463.141" style="stroke:#174D8B;stroke-width:1;"/><polygon points="831.639,453.141,835.639,463.141,839.639,453.141,835.639,457.141" fill="#174D8B" style="stroke:#174D8B;stroke-width:1;stroke-linejoin:miter;stroke-miterlimit:10;"/><line x1="563.346" y1="551.078" x2="563.346" y2="569.078" style="stroke:#174D8B;stroke-width:1;"/><line x1="563.346" y1="569.078" x2="687.492" y2="569.078" style="stroke:#174D8B;stroke-width:1;"/><polygon points="677.492,565.078,687.492,569.078,677.492,573.078,681.492,569.078" fill="#174D8B" style="stroke:#174D8B;stroke-width:1;stroke-linejoin:miter;stroke-miterlimit:10;"/><line x1="835.639" y1="497.109" x2="835.639" y2="569.078" style="stroke:#174D8B;stroke-width:1;"/><line x1="835.639" y1="569.078" x2="711.492" y2="569.078" style="stroke:#174D8B;stroke-width:1;"/><polygon points="721.492,565.078,711.492,569.078,721.492,573.078,717.492,569.078" fill="#174D8B" style="stroke:#174D8B;stroke-width:1;stroke-linejoin:miter;stroke-miterlimit:10;"/><line x1="699.492" y1="409.141" x2="699.492" y2="429.141" style="stroke:#174D8B;stroke-width:1;"/><polygon points="695.492,419.141,699.492,429.141,703.492,419.141,699.492,423.141" fill="#174D8B" style="stroke:#174D8B;stroke-width:1;stroke-linejoin:miter;stroke-miterlimit:10;"/><line x1="699.492" y1="729.054" x2="699.492" y2="749.054" style="stroke:#174D8B;stroke-width:1;"/><polygon points="695.492,739.054,699.492,749.054,703.492,739.054,699.492,743.054" fill="#174D8B" style="stroke:#174D8B;stroke-width:1;stroke-linejoin:miter;stroke-miterlimit:10;"/><line x1="699.492" y1="783.023" x2="699.492" y2="803.023" style="stroke:#174D8B;stroke-width:1;"/><polygon points="695.492,793.023,699.492,803.023,703.492,793.023,699.492,797.023" fill="#174D8B" style="stroke:#174D8B;stroke-width:1;stroke-linejoin:miter;stroke-miterlimit:10;"/><line x1="699.492" y1="836.992" x2="699.492" y2="856.992" style="stroke:#174D8B;stroke-width:1;"/><polygon points="695.492,846.992,699.492,856.992,703.492,846.992,699.492,850.992" fill="#174D8B" style="stroke:#174D8B;stroke-width:1;stroke-linejoin:miter;stroke-miterlimit:10;"/><line x1="539.46" y1="1079.074" x2="539.46" y2="1114.074" style="stroke:#174D8B;stroke-width:1;"/><polygon points="535.46,1104.074,539.46,1114.074,543.46,1104.074,539.46,1108.074" fill="#174D8B" style="stroke:#174D8B;stroke-width:1;stroke-linejoin:miter;stroke-miterlimit:10;"/><line x1="783.679" y1="1057.105" x2="773.679" y2="1057.105" style="stroke:#174D8B;stroke-width:1;"/><line x1="773.679" y1="1057.105" x2="773.679" y2="1079.105" style="stroke:#174D8B;stroke-width:1;"/><polygon points="769.679,1069.105,773.679,1079.105,777.679,1069.105,773.679,1073.105" fill="#174D8B" style="stroke:#174D8B;stroke-width:1;stroke-linejoin:miter;stroke-miterlimit:10;"/><line x1="935.371" y1="1057.105" x2="945.371" y2="1057.105" style="stroke:#174D8B;stroke-width:1;"/><line x1="945.371" y1="1057.105" x2="945.371" y2="1079.105" style="stroke:#174D8B;stroke-width:1;"/><polygon points="941.371,1069.105,945.371,1079.105,949.371,1069.105,945.371,1073.105" fill="#174D8B" style="stroke:#174D8B;stroke-width:1;stroke-linejoin:miter;stroke-miterlimit:10;"/><line x1="773.679" y1="1113.074" x2="773.679" y2="1131.074" style="stroke:#174D8B;stroke-width:1;"/><line x1="773.679" y1="1131.074" x2="847.525" y2="1131.074" style="stroke:#174D8B;stroke-width:1;"/><polygon points="837.525,1127.074,847.525,1131.074,837.525,1135.074,841.525,1131.074" fill="#174D8B" style="stroke:#174D8B;stroke-width:1;stroke-linejoin:miter;stroke-miterlimit:10;"/><line x1="945.371" y1="1113.074" x2="945.371" y2="1131.074" style="stroke:#174D8B;stroke-width:1;"/><line x1="945.371" y1="1131.074" x2="871.525" y2="1131.074" style="stroke:#174D8B;stroke-width:1;"/><polygon points="881.525,1127.074,871.525,1131.074,881.525,1135.074,877.525,1131.074" fill="#174D8B" style="stroke:#174D8B;stroke-width:1;stroke-linejoin:miter;stroke-miterlimit:10;"/><line x1="596.823" y1="1023.105" x2="539.46" y2="1023.105" style="stroke:#174D8B;stroke-width:1;"/><line x1="539.46" y1="1023.105" x2="539.46" y2="1045.105" style="stroke:#174D8B;stroke-width:1;"/><polygon points="535.46,1035.105,539.46,1045.105,543.46,1035.105,539.46,1039.105" fill="#174D8B" style="stroke:#174D8B;stroke-width:1;stroke-linejoin:miter;stroke-miterlimit:10;"/><line x1="802.162" y1="1023.105" x2="859.525" y2="1023.105" style="stroke:#174D8B;stroke-width:1;"/><line x1="859.525" y1="1023.105" x2="859.525" y2="1045.105" style="stroke:#174D8B;stroke-width:1;"/><polygon points="855.525,1035.105,859.525,1045.105,863.525,1035.105,859.525,1039.105" fill="#174D8B" style="stroke:#174D8B;stroke-width:1;stroke-linejoin:miter;stroke-miterlimit:10;"/><line x1="539.46" y1="1148.042" x2="539.46" y2="1166.042" style="stroke:#174D8B;stroke-width:1;"/><line x1="539.46" y1="1166.042" x2="687.492" y2="1166.042" style="stroke:#174D8B;stroke-width:1;"/><polygon points="677.492,1162.042,687.492,1166.042,677.492,1170.042,681.492,1166.042" fill="#174D8B" style="stroke:#174D8B;stroke-width:1;stroke-linejoin:miter;stroke-miterlimit:10;"/><line x1="859.525" y1="1143.074" x2="859.525" y2="1166.042" style="stroke:#174D8B;stroke-width:1;"/><line x1="859.525" y1="1166.042" x2="711.492" y2="1166.042" style="stroke:#174D8B;stroke-width:1;"/><polygon points="721.492,1162.042,711.492,1166.042,721.492,1170.042,717.492,1166.042" fill="#174D8B" style="stroke:#174D8B;stroke-width:1;stroke-linejoin:miter;stroke-miterlimit:10;"/><line x1="699.492" y1="983.226" x2="699.492" y2="1011.105" style="stroke:#174D8B;stroke-width:1;"/><polygon points="695.492,1001.105,699.492,1011.105,703.492,1001.105,699.492,1005.105" fill="#174D8B" style="stroke:#174D8B;stroke-width:1;stroke-linejoin:miter;stroke-miterlimit:10;"/><line x1="699.492" y1="890.96" x2="699.492" y2="949.257" style="stroke:#174D8B;stroke-width:1;"/><polygon points="695.492,939.257,699.492,949.257,703.492,939.257,699.492,943.257" fill="#174D8B" style="stroke:#174D8B;stroke-width:1;stroke-linejoin:miter;stroke-miterlimit:10;"/><line x1="699.492" y1="1234.042" x2="699.492" y2="1258.445" style="stroke:#174D8B;stroke-width:1;"/><polygon points="695.492,1248.445,699.492,1258.445,703.492,1248.445,699.492,1252.445" fill="#174D8B" style="stroke:#174D8B;stroke-width:1;stroke-linejoin:miter;stroke-miterlimit:10;"/><line x1="777.012" y1="1222.042" x2="790.277" y2="1222.042" style="stroke:#174D8B;stroke-width:1;"/><polygon points="786.277,1265.429,790.277,1275.429,794.277,1265.429,790.277,1269.429" fill="#174D8B" style="stroke:#174D8B;stroke-width:1;stroke-linejoin:miter;stroke-miterlimit:10;"/><line x1="790.277" y1="1222.042" x2="790.277" y2="1324.414" style="stroke:#174D8B;stroke-width:1;"/><line x1="790.277" y1="1324.414" x2="711.492" y2="1324.414" style="stroke:#174D8B;stroke-width:1;"/><polygon points="721.492,1320.414,711.492,1324.414,721.492,1328.414,717.492,1324.414" fill="#174D8B" style="stroke:#174D8B;stroke-width:1;stroke-linejoin:miter;stroke-miterlimit:10;"/><line x1="699.492" y1="1292.414" x2="699.492" y2="1312.414" style="stroke:#174D8B;stroke-width:1;"/><polygon points="695.492,1302.414,699.492,1312.414,703.492,1302.414,699.492,1306.414" fill="#174D8B" style="stroke:#174D8B;stroke-width:1;stroke-linejoin:miter;stroke-miterlimit:10;"/><line x1="699.492" y1="1178.042" x2="699.492" y2="1210.042" style="stroke:#174D8B;stroke-width:1;"/><polygon points="695.492,1200.042,699.492,1210.042,703.492,1200.042,699.492,1204.042" fill="#174D8B" style="stroke:#174D8B;stroke-width:1;stroke-linejoin:miter;stroke-miterlimit:10;"/><line x1="699.492" y1="1336.414" x2="699.492" y2="1356.414" style="stroke:#174D8B;stroke-width:1;"/><polygon points="695.492,1346.414,699.492,1356.414,703.492,1346.414,699.492,1350.414" fill="#174D8B" style="stroke:#174D8B;stroke-width:1;stroke-linejoin:miter;stroke-miterlimit:10;"/><line x1="699.492" y1="637.078" x2="699.492" y2="695.085" style="stroke:#174D8B;stroke-width:1;"/><polygon points="695.492,685.085,699.492,695.085,703.492,685.085,699.492,689.085" fill="#174D8B" style="stroke:#174D8B;stroke-width:1;stroke-linejoin:miter;stroke-miterlimit:10;"/><line x1="754.3" y1="625.078" x2="1015.205" y2="625.078" style="stroke:#174D8B;stroke-width:1;"/><polygon points="1011.205,993.226,1015.205,1003.226,1019.205,993.226,1015.205,997.226" fill="#174D8B" style="stroke:#174D8B;stroke-width:1;stroke-linejoin:miter;stroke-miterlimit:10;"/><line x1="1015.205" y1="625.078" x2="1015.205" y2="1422.382" style="stroke:#174D8B;stroke-width:1;"/><line x1="1015.205" y1="1422.382" x2="711.492" y2="1422.382" style="stroke:#174D8B;stroke-width:1;"/><polygon points="721.492,1418.382,711.492,1422.382,721.492,1426.382,717.492,1422.382" fill="#174D8B" style="stroke:#174D8B;stroke-width:1;stroke-linejoin:miter;stroke-miterlimit:10;"/><line x1="699.492" y1="1390.382" x2="699.492" y2="1410.382" style="stroke:#174D8B;stroke-width:1;"/><polygon points="695.492,1400.382,699.492,1410.382,703.492,1400.382,699.492,1404.382" fill="#174D8B" style="stroke:#174D8B;stroke-width:1;stroke-linejoin:miter;stroke-miterlimit:10;"/><line x1="699.492" y1="581.078" x2="699.492" y2="613.078" style="stroke:#174D8B;stroke-width:1;"/><polygon points="695.492,603.078,699.492,613.078,703.492,603.078,699.492,607.078" fill="#174D8B" style="stroke:#174D8B;stroke-width:1;stroke-linejoin:miter;stroke-miterlimit:10;"/><line x1="699.492" y1="1434.382" x2="699.492" y2="1454.382" style="stroke:#174D8B;stroke-width:1;"/><polygon points="695.492,1444.382,699.492,1454.382,703.492,1444.382,699.492,1448.382" fill="#174D8B" style="stroke:#174D8B;stroke-width:1;stroke-linejoin:miter;stroke-miterlimit:10;"/><line x1="429.537" y1="316.875" x2="264.798" y2="316.875" style="stroke:#174D8B;stroke-width:1;"/><line x1="264.798" y1="316.875" x2="264.798" y2="338.875" style="stroke:#174D8B;stroke-width:1;"/><polygon points="260.798,328.875,264.798,338.875,268.798,328.875,264.798,332.875" fill="#174D8B" style="stroke:#174D8B;stroke-width:1;stroke-linejoin:miter;stroke-miterlimit:10;"/><line x1="534.753" y1="316.875" x2="699.492" y2="316.875" style="stroke:#174D8B;stroke-width:1;"/><line x1="699.492" y1="316.875" x2="699.492" y2="375.172" style="stroke:#174D8B;stroke-width:1;"/><polygon points="695.492,365.172,699.492,375.172,703.492,365.172,699.492,369.172" fill="#174D8B" style="stroke:#174D8B;stroke-width:1;stroke-linejoin:miter;stroke-miterlimit:10;"/><line x1="264.798" y1="372.844" x2="264.798" y2="1506.351" style="stroke:#174D8B;stroke-width:1;"/><line x1="264.798" y1="1506.351" x2="470.145" y2="1506.351" style="stroke:#174D8B;stroke-width:1;"/><polygon points="460.145,1502.351,470.145,1506.351,460.145,1510.351,464.145,1506.351" fill="#174D8B" style="stroke:#174D8B;stroke-width:1;stroke-linejoin:miter;stroke-miterlimit:10;"/><line x1="699.492" y1="1488.351" x2="699.492" y2="1506.351" style="stroke:#174D8B;stroke-width:1;"/><line x1="699.492" y1="1506.351" x2="494.145" y2="1506.351" style="stroke:#174D8B;stroke-width:1;"/><polygon points="504.145,1502.351,494.145,1506.351,504.145,1510.351,500.145,1506.351" fill="#174D8B" style="stroke:#174D8B;stroke-width:1;stroke-linejoin:miter;stroke-miterlimit:10;"/><line x1="482.145" y1="284.875" x2="482.145" y2="304.875" style="stroke:#174D8B;stroke-width:1;"/><polygon points="478.145,294.875,482.145,304.875,486.145,294.875,482.145,298.875" fill="#174D8B" style="stroke:#174D8B;stroke-width:1;stroke-linejoin:miter;stroke-miterlimit:10;"/><line x1="217.013" y1="228.906" x2="85.59" y2="228.906" style="stroke:#174D8B;stroke-width:1;"/><line x1="85.59" y1="228.906" x2="85.59" y2="250.906" style="stroke:#174D8B;stroke-width:1;"/><polygon points="81.59,240.906,85.59,250.906,89.59,240.906,85.59,244.906" fill="#174D8B" style="stroke:#174D8B;stroke-width:1;stroke-linejoin:miter;stroke-miterlimit:10;"/><line x1="350.722" y1="228.906" x2="482.145" y2="228.906" style="stroke:#174D8B;stroke-width:1;"/><line x1="482.145" y1="228.906" x2="482.145" y2="250.906" style="stroke:#174D8B;stroke-width:1;"/><polygon points="478.145,240.906,482.145,250.906,486.145,240.906,482.145,244.906" fill="#174D8B" style="stroke:#174D8B;stroke-width:1;stroke-linejoin:miter;stroke-miterlimit:10;"/><line x1="85.59" y1="284.875" x2="85.59" y2="1536.351" style="stroke:#174D8B;stroke-width:1;"/><line x1="85.59" y1="1536.351" x2="271.867" y2="1536.351" style="stroke:#174D8B;stroke-width:1;"/><polygon points="261.867,1532.351,271.867,1536.351,261.867,1540.351,265.867,1536.351" fill="#174D8B" style="stroke:#174D8B;stroke-width:1;stroke-linejoin:miter;stroke-miterlimit:10;"/><line x1="482.145" y1="1518.351" x2="482.145" y2="1536.351" style="stroke:#174D8B;stroke-width:1;"/><line x1="482.145" y1="1536.351" x2="295.867" y2="1536.351" style="stroke:#174D8B;stroke-width:1;"/><polygon points="305.867,1532.351,295.867,1536.351,305.867,1540.351,301.867,1536.351" fill="#174D8B" style="stroke:#174D8B;stroke-width:1;stroke-linejoin:miter;stroke-miterlimit:10;"/><line x1="283.867" y1="196.906" x2="283.867" y2="216.906" style="stroke:#174D8B;stroke-width:1;"/><polygon points="279.867,206.906,283.867,216.906,287.867,206.906,283.867,210.906" fill="#174D8B" style="stroke:#174D8B;stroke-width:1;stroke-linejoin:miter;stroke-miterlimit:10;"/><line x1="351.909" y1="1580.351" x2="1033.205" y2="1580.351" style="stroke:#174D8B;stroke-width:1;"/><polygon points="1029.205,883.253,1033.205,873.253,1037.205,883.253,1033.205,879.253" fill="#174D8B" style="stroke:#174D8B;stroke-width:1;stroke-linejoin:miter;stroke-miterlimit:10;"/><line x1="1033.205" y1="179.922" x2="1033.205" y2="1580.351" style="stroke:#174D8B;stroke-width:1;"/><line x1="1033.205" y1="179.922" x2="385.118" y2="179.922" style="stroke:#174D8B;stroke-width:1;"/><polygon points="395.118,175.922,385.118,179.922,395.118,183.922,391.118,179.922" fill="#174D8B" style="stroke:#174D8B;stroke-width:1;stroke-linejoin:miter;stroke-miterlimit:10;"/><line x1="283.867" y1="1548.351" x2="283.867" y2="1568.351" style="stroke:#174D8B;stroke-width:1;"/><polygon points="279.867,1558.351,283.867,1568.351,287.867,1558.351,283.867,1562.351" fill="#174D8B" style="stroke:#174D8B;stroke-width:1;stroke-linejoin:miter;stroke-miterlimit:10;"/><line x1="283.867" y1="142.938" x2="283.867" y2="162.938" style="stroke:#174D8B;stroke-width:1;"/><polygon points="279.867,152.938,283.867,162.938,287.867,152.938,283.867,156.938" fill="#174D8B" style="stroke:#174D8B;stroke-width:1;stroke-linejoin:miter;stroke-miterlimit:10;"/><line x1="283.867" y1="1592.351" x2="283.867" y2="1624.062" style="stroke:#174D8B;stroke-width:1;"/><polygon points="279.867,1614.062,283.867,1624.062,287.867,1614.062,283.867,1618.062" fill="#174D8B" style="stroke:#174D8B;stroke-width:1;stroke-linejoin:miter;stroke-miterlimit:10;"/><line x1="283.867" y1="1658.03" x2="283.867" y2="1678.03" style="stroke:#174D8B;stroke-width:1;"/><polygon points="279.867,1668.03,283.867,1678.03,287.867,1668.03,283.867,1672.03" fill="#174D8B" style="stroke:#174D8B;stroke-width:1;stroke-linejoin:miter;stroke-miterlimit:10;"/><line x1="283.867" y1="1711.999" x2="283.867" y2="1731.999" style="stroke:#174D8B;stroke-width:1;"/><polygon points="279.867,1721.999,283.867,1731.999,287.867,1721.999,283.867,1725.999" fill="#174D8B" style="stroke:#174D8B;stroke-width:1;stroke-linejoin:miter;stroke-miterlimit:10;"/><?plantuml-src VLNRSk8u47ttLtHbQxRWOGQOIMgpi9SYTbp35e4iP6OpZuhT3Yg4vP9amBir_xujsO2uP9uGwjlfqqTjlUHvmHHRGOGPAuM9PMucR8KmL9o9GE_jmyJmDJVL7KkMhqgMUHfA8HNy57VZw_ZsagTKAQh6wxft-siK-bvAoKrZxFro7TtUUSQ9D7XUA8w7ONJgvHU9XiERZrtFuv4fmmsN-J6M6tQTVGe2RSWSzBzeL908dYmrNCqJXPXJO85ANms2_YYd14pmVn4qQasvWE8Cmi-mfklK7Xz7uHIePcdq80WK5iWCz6EgXInPm6CKGsl5jl2n2uLBt1u403o3bZLzPdf1qH2IB_xP1hCW0ArlgDla1D0VIvRMnXHcg6b8DXg5HcXDPEDqlpMA9SRL2cc6c1lANZsKzg83JmGTdSCqdBdgTVqdt1hW6d1LcEgyDYMUBta1CHTKR2nVuH-cSfw_DYcEGG1rr_0DLq-SMEtrILS6rOhdN1kUmFqs4QKbyGh-Qs9iZOJbO2oKZ3ZR-n35etntNcAreI7gmJxCuZ_uPbOfC9n4C9bwOUxwKcEkyB0qyhtBaM8zyu5l9Y8pdcAU8FmElGzTQFMwtNVjWyzf_oxghYgOrc0a34TmJo8fcQN4YyfJdZN_lZU_mQ4d7zH5wETLFTx7umUeHKnZ8WRf2MWw-NpNdMcZIYiOgzr79Ka0Hxt_NQAgm6PhpT3GyTCMAByJIaUHwjyBlkAcVHHqLmg1fb1IPl3NV3hPLJzosacLs8amuSsa3rmVdB_lJvSwzQRp5HNFUE9ufbpJDIf5fjEccKXAOHziBSuJRSuJgT17weOngk_X3-X-k77wQe9_inTlAOkgxK3OFZseaTpa6wRImR5tBDYhK__dSaMFOOPhZXjwSdo9eg8L8KIPyDmrU4Jv9GNkaNjbLrpRGRoDbp3G8jmrTyR5MvMQi1rD9o6UqC__NvYknHrJcyA7_aEYQ-AOXh7SNDJGEUnZ58Sjj5C3GWrXJck-rD1oooJ5JlCaEm-iUi7z4Fni-vt9rjYiQhi6tEucMTg4pVxQHTM_pHTZit1hzi7AZTQsjX-55sQI1JLFEzgr3haqTJj1VqRHDAt3Qu_eI_8YILoq-Zb2kA37GdMVs8j0-ytfHrmNWbMqOWj9fcbXzKIPm_dNplDu_jo9fk4pEMeZY_y1?></g></svg>